# xmcd
#
# Track frame offsets: 
#        182
#        15145
#        26890
#        43680
#        59087
#        76335
#        92092
#        107617
#        125897
#        141015
#
# Disc length: 2056 seconds
#
# Revision: 7
# Processed by: cddbd v1.5.2PL0 Copyright (c) Steve Scherf et al.
# Submitted via: ExactAudioCopy v0.99pb5
#
DISCID=8208060a
DTITLE=McBride, Martina - The Way That I Am - The Way That I Am
DYEAR=1993
DGENRE=Country
TTITLE0=Heart Trouble
TTITLE1=My Baby Loves Me
TTITLE2=That Wasn't Me
TTITLE3=Independence Day
TTITLE4=Where I Used To Have A Heart
TTITLE5=Goin' To Work
TTITLE6=She Ain't Seen Nothing Yet
TTITLE7=Life #9
TTITLE8=Strangers
TTITLE9=Ashes
EXTD=
EXTT0=
EXTT1=
EXTT2=
EXTT3=
EXTT4=
EXTT5=
EXTT6=
EXTT7=
EXTT8=
EXTT9=
PLAYORDER=
